<svg xmlns="http://www.w3.org/2000/svg" fill="none" viewBox="0 0 32 28"><path d="M32 13.884c-.314.36-.713.583-1.145.785-2.659 1.235-5.307 2.499-7.97 3.729-.531.242-.802.559-.935 1.166-.471 2.148-1.037 4.272-1.557 6.406-.113.459-.28.874-.772.997-.521.133-.9-.103-1.229-.518-.889-1.122-1.862-2.179-2.688-3.344-.575-.806-1.105-.988-1.931-.425-.388.262-.855.405-1.282.608-1.2.563-1.518.46-2.094-.711C7.033 15.682 3.672 8.781.302 1.882.047 1.359-.21.825.267.312.75-.208 1.304.04 1.834.257c9.7 4.051 19.4 8.105 29.11 12.15.416.174.771.41 1.056.756v.722-.001ZM4.34 5.304c-.035.03-.073.055-.108.084C5.14 7.25 6.05 9.108 6.96 10.97c1.577 3.235 3.164 6.464 4.712 9.715.26.543.477.597.997.345 2.315-1.125 4.654-2.203 7.14-3.373C14.58 13.479 9.46 9.389 4.34 5.304Zm2.26-.899-.06.104 5.47 4.372c3.096 2.469 6.196 4.934 9.276 7.423.374.301.649.375 1.1.153 1.97-.963 3.966-1.877 6.137-2.894C21.11 10.466 13.852 7.433 6.6 4.405Zm12.716 15.77c-.776.47-1.695.667-2.373 1.31.605.755 1.209 1.511 1.907 2.385.187-.771.335-1.388.481-2.005.143-.598.29-1.195.433-1.779-.226-.123-.339.02-.447.09Z"/></svg>