<svg xmlns="http://www.w3.org/2000/svg" fill="none" viewBox="0 0 24 34"><path d="M12 .004c-6.618 0-12 5.46-12 12.158 0 7.935 6.846 14.47 11.114 20.384a1.087 1.087 0 0 0 1.772 0C17.154 26.632 24 20.097 24 12.162 24 5.463 18.617.004 12 .004Zm0 2.2c5.433 0 9.818 4.442 9.818 9.957 0 6.192-5.467 12.146-9.818 17.944-4.351-5.798-9.818-11.752-9.818-17.944 0-5.515 4.386-9.957 9.818-9.957Zm0 4.434c-3 0-5.455 2.463-5.455 5.477 0 3.014 2.454 5.488 5.455 5.488 3 0 5.454-2.474 5.454-5.488 0-3.014-2.453-5.477-5.454-5.477Zm0 2.2c1.82 0 3.273 1.45 3.273 3.277A3.266 3.266 0 0 1 12 15.403a3.266 3.266 0 0 1-3.273-3.288A3.257 3.257 0 0 1 12 8.838Z"/></svg>