<svg xmlns="http://www.w3.org/2000/svg" fill="none" viewBox="0 0 31 31"><path d="M15.5 0C6.936 0 0 6.936 0 15.5S6.936 31 15.5 31 31 24.064 31 15.5 24.064 0 15.5 0ZM9.687 6.975c1.086 0 1.809.723 1.809 1.692s-.723 1.692-1.938 1.692c-1.085 0-1.808-.723-1.808-1.692s.723-1.692 1.938-1.692Zm1.938 14.983H7.75V11.625h3.875v10.333Zm12.917 0h-3.643v-5.644c0-1.563-.969-1.925-1.33-1.925-.362 0-1.576.246-1.576 1.925v5.644H14.22V11.625h3.772v1.447c.49-.84 1.46-1.447 3.28-1.447 1.822 0 3.282 1.447 3.282 4.689v5.644h-.013Z"/></svg>