<svg xmlns="http://www.w3.org/2000/svg" fill="none" viewBox="0 0 40 40"><path fill="#F7941D" fill-rule="evenodd" d="M39.837 38.786c-2.79-.55-3.116-1.132-4.193-3.317-2.414-4.773-6.166-13.9-12.756-14.676 6.884-1.764 11.272-4.013 11.272-10.065C34.16 2.524 27.553 0 18.336 0 12.79 0 6.101.227.751.227c0 0-.571.097-.571.582s.49.615.49.615c1.435.243 4.012.307 4.012 3.236v30.89c.18 2.945-2.512 3.123-4.127 3.253 0 0-.571.178-.555.614 0 .437.49.567.49.567h17.014s.555-.016.555-.567c0-.485-.62-.63-.62-.63-1.664-.162-4.42 0-4.42-2.946V22.087c2.593.114 4.779-.194 6.981 1.295 3.524 2.395 4.927 11.36 8.89 16.618H40l-.18-1.197.017-.017ZM17.308 19.401c-1.484.065-2.789 0-4.29 0V4.321c0-2.8.93-2.38 3.817-2.476 5.204-.162 8.287 3.042 8.287 8.592 0 5.55-2.495 8.705-7.814 8.948v.016Z" clip-rule="evenodd"/></svg>