<svg xmlns="http://www.w3.org/2000/svg" fill="none" viewBox="0 0 35 40"><path fill="#F7941D" fill-rule="evenodd" d="M34.146 11.909C34.146 3.639 27.003 0 18.702 0 12.508 0 6.507 0 .522.114c0 0-.402.032-.498.455-.129.552.306.763.306.763 3.185 0 4.279 2.096 4.279 5.053v29.082c0 2.94-2.735 3.12-3.91 3.2 0 0-.563.163-.546.65 0 .504.804.683.804.683h15.847s.74-.179.74-.682c0-.374-.612-.65-.612-.65-1.898-.146-3.845-.325-3.845-3.266l-.032-12.348 4.183-.032c7.787 0 16.908-2.665 16.908-11.097v-.016Zm-21.09 9.017V4.386c0-3.07 1.029-2.615 4.23-2.713 5.76-.178 9.186 3.347 9.186 9.44s-2.783 9.57-8.671 9.83c-1.657.08-3.105 0-4.746 0v-.017Z" clip-rule="evenodd"/></svg>