<svg xmlns="http://www.w3.org/2000/svg" fill="none" viewBox="0 0 44 40"><path fill="#F7941D" fill-rule="evenodd" d="M19.317 0C13.019 0 6.772.288.525.336c0 0-.373.096-.373.592s.373.624.373.624c1.49.224 4.435.288 4.435 3.184V35.28c0 2.896-1.642 3.264-4.96 3.264v1.2C5.756 39.68 12.24 40 18.064 40 35.18 40 44 33.392 44 20.288 44 9.456 38.058.016 19.317.016V0Zm1.202 37.952c-3.522-.048-5.689-.16-5.689-4.336V6.176c.034-4.24.153-4.128 4.842-4.08 10.073.112 14.898 6.848 14.898 18.736 0 10.32-5.383 17.232-14.051 17.12Z" clip-rule="evenodd"/></svg>