<svg xmlns="http://www.w3.org/2000/svg" fill="none" viewBox="0 0 33 29"><path d="M1 13.71C1 6.706 7.95 1.004 16.5 1.004S32 6.706 32 13.71a11.11 11.11 0 0 1-2.66 7.146l1.844 6.139a.783.783 0 0 1-.277.834.831.831 0 0 1-.539.174.824.824 0 0 1-.4-.103l-5.824-3.176a18.162 18.162 0 0 1-7.644 1.691C7.95 26.415 1 20.714 1 13.71Zm15.5 11.117a16.429 16.429 0 0 0 7.293-1.676.837.837 0 0 1 .767 0l4.487 2.47-1.395-4.764a.778.778 0 0 1 .163-.739 9.607 9.607 0 0 0 2.553-6.408c0-6.13-6.224-11.118-13.868-11.118S2.632 7.58 2.632 13.71 8.856 24.827 16.5 24.827Z"/></svg>