<svg width="1000" height="667" viewBox="0 0 1000 667" fill="none" xmlns="http://www.w3.org/2000/svg">
<path d="M0 0V539.016L296.873 256.657C300.382 253.233 305.199 250.888 310.328 250.144C318.031 249.064 326.253 251.744 331.402 256.992L571.592 499.301L738.736 340.051C742.245 336.627 747.062 334.282 752.191 333.537C759.894 332.458 768.116 335.138 773.265 340.386L1000 567.062V0H0ZM581.371 145.906C619.908 145.906 651.136 173.896 651.136 208.438C651.136 242.979 619.908 270.969 581.371 270.969C542.835 270.969 511.607 242.979 511.607 208.438C511.607 173.896 542.835 145.906 581.371 145.906ZM313.567 301.583L0 599.574V666.981H675.844L313.567 301.583ZM755.409 384.958L602.425 530.548L737.947 667H999.959L999.543 629.221L755.388 384.958H755.409Z" fill="#D9D9D9"/>
</svg>
